<svg width="225" height="60" xmlns="http://www.w3.org/2000/svg">
    <g fill="none" fill-rule="evenodd">
        <g fill="#764ABC" fill-rule="nonzero">
            <path d="M41.424 39.078a4.2 4.2 0 0 0 3.794-4.325c-.076-2.238-1.973-4.028-4.249-4.028h-.151c-2.352.075-4.173 2.014-4.097 4.326.075 1.118.53 2.088 1.213 2.76-2.579 4.996-6.524 8.65-12.442 11.708-4.021 2.088-8.194 2.834-12.367 2.312-3.414-.448-6.07-1.94-7.738-4.4-2.428-3.655-2.656-7.607-.607-11.56 1.441-2.834 3.717-4.922 5.159-5.966-.304-.97-.759-2.61-.986-3.803-11.001 7.83-9.863 18.42-6.525 23.417 2.503 3.728 7.587 6.04 13.201 6.04 1.517 0 3.035-.149 4.552-.522 9.711-1.864 17.07-7.532 21.243-15.959z"/>
            <path d="M54.777 29.83C49.011 23.194 40.514 19.54 30.803 19.54h-1.214c-.683-1.342-2.124-2.237-3.718-2.237h-.151c-2.352.074-4.173 2.013-4.097 4.325.076 2.237 1.972 4.027 4.248 4.027h.152c1.67-.074 3.11-1.118 3.718-2.535h1.365c5.766 0 11.229 1.64 16.16 4.847 3.794 2.461 6.525 5.668 8.042 9.546 1.29 3.132 1.214 6.19-.151 8.8-2.125 3.952-5.69 6.115-10.394 6.115-3.035 0-5.918-.895-7.435-1.566-.835.746-2.352 1.939-3.415 2.685 3.263 1.491 6.601 2.312 9.788 2.312 7.283 0 12.67-3.953 14.718-7.905 2.2-4.326 2.049-11.784-3.642-18.122z"/>
            <path d="M16.236 40.346c.076 2.237 1.973 4.027 4.249 4.027h.151c2.352-.075 4.173-2.014 4.097-4.326-.076-2.237-1.972-4.027-4.248-4.027h-.152c-.152 0-.38 0-.531.075-3.11-5.071-4.4-10.59-3.945-16.556.303-4.475 1.82-8.353 4.476-11.56 2.2-2.759 6.449-4.101 9.332-4.176 8.042-.149 11.456 9.695 11.684 13.648.986.224 2.655.746 3.793 1.118C44.232 6.49 36.645.224 29.362.224c-6.829 0-13.126 4.847-15.63 12.007-3.49 9.545-1.214 18.718 3.035 25.952-.38.522-.607 1.342-.531 2.163z"/>
        </g>
        <g transform="translate(43.683 39.661)">
            <ellipse fill="#FFF" cx="10.159" cy="10.169" rx="10.159" ry="10.169"/>
            <path d="M10.159 0C4.549 0 0 4.553 0 10.17c0 5.616 4.548 10.169 10.159 10.169 5.61 0 10.158-4.553 10.158-10.17C20.317 4.553 15.77 0 10.16 0zM8.295 15.393l-4.473-4.477 1.491-1.493 2.982 2.985 6.71-6.716 1.49 1.492-8.2 8.21z" fill="#6AC259" fill-rule="nonzero"/>
        </g>
        <text font-family="ArialRoundedMTBold, Arial Rounded MT Bold" font-size="44" fill="#000">
            <tspan x="72" y="49">YARFL</tspan>
        </text>
    </g>
</svg>
